<svg version="1.1" id="Capa_1" xmlns="http://www.w3.org/2000/svg" xmlns:xlink="http://www.w3.org/1999/xlink" x="0px" y="0px" viewBox="0 0 60 60" style="enable-background:new 0 0 384.864 384.864;" xml:space="preserve" width="60" height="60"><g><path id="Vintage_Luxury_Arrow_Right" d="M59.447 28.665 46.417 15.549a1.87 1.87 0 0 0 -1.379 -0.546c-0.015 0 -0.028 -0.009 -0.043 -0.009H1.859c-1.651 0 -2.475 2.08 -1.322 3.239l11.707 11.806 -11.57 11.669c-1.247 1.157 -0.692 3.297 1.581 3.293h42.724c0.521 0.034 1.052 -0.132 1.452 -0.532l13.016 -13.127a1.898 1.898 0 0 0 0 -2.678M44.309 41.239l-37.861 0.011L16.22 31.395a1.895 1.895 0 0 0 0.549 -1.358 1.885 1.885 0 0 0 -0.549 -1.358L6.368 18.745h37.893l11.177 11.272z"/><g/><g/><g/><g/><g/><g/></g></svg>